<mxfile host="app.diagrams.net" modified="2021-12-01T03:53:19.257Z" agent="5.0 (Macintosh; Intel Mac OS X 10_15_7) AppleWebKit/537.36 (KHTML, like Gecko) Chrome/96.0.4664.55 Safari/537.36" etag="2uW_u55FMcVbqvQUuxPY" version="15.8.7" type="github">
  <diagram id="GOm4koh9pDZaBicsru-c" name="Page-1">
    <mxGraphModel dx="1298" dy="685" grid="1" gridSize="10" guides="1" tooltips="1" connect="1" arrows="1" fold="1" page="1" pageScale="1" pageWidth="827" pageHeight="1169" background="#DAD2D8" math="0" shadow="0">
      <root>
        <mxCell id="0" />
        <mxCell id="1" parent="0" />
        <mxCell id="xH9Cehja_mSp8B9L52eV-3" value="&lt;meta charset=&quot;utf-8&quot;&gt;&lt;div style=&quot;color: rgb(212, 212, 212); background-color: rgb(30, 30, 30); font-family: menlo, monaco, &amp;quot;courier new&amp;quot;, monospace; font-weight: normal; font-size: 12px; line-height: 18px;&quot;&gt;&lt;div&gt;&lt;span style=&quot;color: #9cdcfe&quot;&gt;bindstatechange&lt;/span&gt;&lt;/div&gt;&lt;/div&gt;" style="edgeStyle=orthogonalEdgeStyle;rounded=0;orthogonalLoop=1;jettySize=auto;html=1;labelBackgroundColor=#DAD2D8;strokeColor=#A8201A;fontColor=#143642;" edge="1" parent="1" source="xH9Cehja_mSp8B9L52eV-1" target="xH9Cehja_mSp8B9L52eV-2">
          <mxGeometry x="0.0833" y="20" relative="1" as="geometry">
            <mxPoint as="offset" />
          </mxGeometry>
        </mxCell>
        <mxCell id="xH9Cehja_mSp8B9L52eV-1" value="live-pusher" style="rounded=0;whiteSpace=wrap;html=1;fillColor=#FAE5C7;strokeColor=#0F8B8D;fontColor=#143642;" vertex="1" parent="1">
          <mxGeometry y="40" width="90" height="40" as="geometry" />
        </mxCell>
        <mxCell id="xH9Cehja_mSp8B9L52eV-10" value="" style="edgeStyle=orthogonalEdgeStyle;rounded=0;orthogonalLoop=1;jettySize=auto;html=1;labelBackgroundColor=#DAD2D8;strokeColor=#A8201A;fontColor=#143642;" edge="1" parent="1" source="xH9Cehja_mSp8B9L52eV-2" target="xH9Cehja_mSp8B9L52eV-9">
          <mxGeometry relative="1" as="geometry">
            <Array as="points">
              <mxPoint x="360" y="120" />
              <mxPoint x="200" y="120" />
            </Array>
          </mxGeometry>
        </mxCell>
        <mxCell id="xH9Cehja_mSp8B9L52eV-28" value="" style="edgeStyle=orthogonalEdgeStyle;rounded=0;orthogonalLoop=1;jettySize=auto;html=1;fontSize=17;labelBackgroundColor=#DAD2D8;strokeColor=#A8201A;fontColor=#143642;" edge="1" parent="1" source="xH9Cehja_mSp8B9L52eV-2" target="xH9Cehja_mSp8B9L52eV-27">
          <mxGeometry relative="1" as="geometry" />
        </mxCell>
        <mxCell id="xH9Cehja_mSp8B9L52eV-2" value="trtc-wx" style="whiteSpace=wrap;html=1;rounded=0;strokeColor=#0F8B8D;fillColor=#FAE5C7;fontColor=#143642;" vertex="1" parent="1">
          <mxGeometry x="330" y="40" width="80" height="40" as="geometry" />
        </mxCell>
        <mxCell id="xH9Cehja_mSp8B9L52eV-50" style="edgeStyle=orthogonalEdgeStyle;rounded=0;orthogonalLoop=1;jettySize=auto;html=1;entryX=-0.013;entryY=0.595;entryDx=0;entryDy=0;entryPerimeter=0;fontSize=18;labelBackgroundColor=#DAD2D8;strokeColor=#A8201A;fontColor=#143642;" edge="1" parent="1" source="xH9Cehja_mSp8B9L52eV-9" target="xH9Cehja_mSp8B9L52eV-20">
          <mxGeometry relative="1" as="geometry">
            <Array as="points">
              <mxPoint x="270" y="365" />
              <mxPoint x="270" y="271" />
            </Array>
          </mxGeometry>
        </mxCell>
        <mxCell id="xH9Cehja_mSp8B9L52eV-63" style="edgeStyle=orthogonalEdgeStyle;rounded=0;orthogonalLoop=1;jettySize=auto;html=1;entryX=0;entryY=0.5;entryDx=0;entryDy=0;fontSize=18;labelBackgroundColor=#DAD2D8;strokeColor=#A8201A;fontColor=#143642;" edge="1" parent="1" source="xH9Cehja_mSp8B9L52eV-9" target="xH9Cehja_mSp8B9L52eV-56">
          <mxGeometry relative="1" as="geometry" />
        </mxCell>
        <mxCell id="xH9Cehja_mSp8B9L52eV-9" value="userConroller" style="whiteSpace=wrap;html=1;rounded=0;strokeColor=#0F8B8D;fillColor=#FAE5C7;fontColor=#143642;" vertex="1" parent="1">
          <mxGeometry x="150" y="345" width="100" height="40" as="geometry" />
        </mxCell>
        <mxCell id="xH9Cehja_mSp8B9L52eV-12" value="&lt;meta charset=&quot;utf-8&quot;&gt;&lt;div style=&quot;color: rgb(212, 212, 212); background-color: rgb(30, 30, 30); font-family: menlo, monaco, &amp;quot;courier new&amp;quot;, monospace; font-weight: normal; font-size: 12px; line-height: 18px;&quot;&gt;&lt;div&gt;&lt;span style=&quot;color: #dcdcaa&quot;&gt;pusherEventHandler&lt;/span&gt;&lt;/div&gt;&lt;/div&gt;" style="text;whiteSpace=wrap;html=1;fontColor=#143642;" vertex="1" parent="1">
          <mxGeometry x="210" y="90" width="160" height="30" as="geometry" />
        </mxCell>
        <mxCell id="xH9Cehja_mSp8B9L52eV-25" value="" style="edgeStyle=orthogonalEdgeStyle;rounded=0;orthogonalLoop=1;jettySize=auto;html=1;fontSize=17;exitX=0.5;exitY=0;exitDx=0;exitDy=0;labelBackgroundColor=#DAD2D8;strokeColor=#A8201A;fontColor=#143642;" edge="1" parent="1" source="xH9Cehja_mSp8B9L52eV-20" target="xH9Cehja_mSp8B9L52eV-2">
          <mxGeometry relative="1" as="geometry" />
        </mxCell>
        <mxCell id="xH9Cehja_mSp8B9L52eV-26" value="&lt;meta charset=&quot;utf-8&quot;&gt;&lt;div style=&quot;color: rgb(212, 212, 212); background-color: rgb(30, 30, 30); font-family: menlo, monaco, &amp;quot;courier new&amp;quot;, monospace; font-weight: normal; font-size: 12px; line-height: 18px;&quot;&gt;&lt;div&gt;&lt;span style=&quot;color: #9cdcfe&quot;&gt;emitter&lt;/span&gt;&lt;/div&gt;&lt;/div&gt;" style="text;whiteSpace=wrap;html=1;fontSize=17;fontColor=#143642;" vertex="1" parent="1">
          <mxGeometry x="379" y="80" width="80" height="30" as="geometry" />
        </mxCell>
        <mxCell id="xH9Cehja_mSp8B9L52eV-27" value="&lt;b&gt;&lt;font style=&quot;font-size: 18px&quot;&gt;回调处理&lt;/font&gt;&lt;/b&gt;" style="whiteSpace=wrap;html=1;rounded=0;strokeColor=#0F8B8D;fillColor=#FAE5C7;fontColor=#143642;" vertex="1" parent="1">
          <mxGeometry x="670" y="30" width="120" height="60" as="geometry" />
        </mxCell>
        <mxCell id="xH9Cehja_mSp8B9L52eV-30" value="" style="endArrow=none;dashed=1;html=1;rounded=0;fontSize=17;labelBackgroundColor=#DAD2D8;strokeColor=#A8201A;fontColor=#143642;" edge="1" parent="1">
          <mxGeometry width="50" height="50" relative="1" as="geometry">
            <mxPoint x="600" y="660" as="sourcePoint" />
            <mxPoint x="600" y="20" as="targetPoint" />
          </mxGeometry>
        </mxCell>
        <mxCell id="xH9Cehja_mSp8B9L52eV-31" value="user" style="text;html=1;align=center;verticalAlign=middle;resizable=0;points=[];autosize=1;strokeColor=none;fillColor=none;fontSize=17;fontColor=#143642;" vertex="1" parent="1">
          <mxGeometry x="610" y="30" width="50" height="30" as="geometry" />
        </mxCell>
        <mxCell id="xH9Cehja_mSp8B9L52eV-32" value="" style="endArrow=none;dashed=1;html=1;rounded=0;fontSize=17;labelBackgroundColor=#DAD2D8;strokeColor=#A8201A;fontColor=#143642;" edge="1" parent="1">
          <mxGeometry width="50" height="50" relative="1" as="geometry">
            <mxPoint x="130" y="660" as="sourcePoint" />
            <mxPoint x="130" y="20" as="targetPoint" />
          </mxGeometry>
        </mxCell>
        <mxCell id="xH9Cehja_mSp8B9L52eV-33" value="wx" style="text;html=1;align=center;verticalAlign=middle;resizable=0;points=[];autosize=1;strokeColor=none;fillColor=none;fontSize=17;fontColor=#143642;" vertex="1" parent="1">
          <mxGeometry x="90" y="30" width="40" height="30" as="geometry" />
        </mxCell>
        <mxCell id="xH9Cehja_mSp8B9L52eV-34" value="&lt;meta charset=&quot;utf-8&quot;&gt;&lt;div style=&quot;color: rgb(212, 212, 212); background-color: rgb(30, 30, 30); font-family: menlo, monaco, &amp;quot;courier new&amp;quot;, monospace; font-weight: normal; font-size: 12px; line-height: 18px;&quot;&gt;&lt;div&gt;&lt;span style=&quot;color: #dcdcaa&quot;&gt;on&lt;/span&gt;&lt;/div&gt;&lt;/div&gt;" style="text;whiteSpace=wrap;html=1;fontSize=17;fontColor=#143642;" vertex="1" parent="1">
          <mxGeometry x="430" y="30" width="40" height="30" as="geometry" />
        </mxCell>
        <mxCell id="xH9Cehja_mSp8B9L52eV-53" value="" style="group;fontColor=#143642;" vertex="1" connectable="0" parent="1">
          <mxGeometry x="350" y="140" width="230" height="220" as="geometry" />
        </mxCell>
        <mxCell id="xH9Cehja_mSp8B9L52eV-20" value="&lt;div style=&quot;color: rgb(212 , 212 , 212) ; background-color: rgb(30 , 30 , 30) ; font-family: &amp;#34;menlo&amp;#34; , &amp;#34;monaco&amp;#34; , &amp;#34;courier new&amp;#34; , monospace ; font-weight: normal ; font-size: 12px ; line-height: 18px&quot;&gt;&lt;br&gt;&lt;/div&gt;" style="rounded=0;whiteSpace=wrap;html=1;fillColor=#FAE5C7;strokeColor=#0F8B8D;glass=0;fontColor=#143642;" vertex="1" parent="xH9Cehja_mSp8B9L52eV-53">
          <mxGeometry x="10" width="230" height="220" as="geometry" />
        </mxCell>
        <mxCell id="xH9Cehja_mSp8B9L52eV-14" value="&lt;meta charset=&quot;utf-8&quot;&gt;&lt;div style=&quot;color: rgb(212, 212, 212); background-color: rgb(30, 30, 30); font-family: menlo, monaco, &amp;quot;courier new&amp;quot;, monospace; font-weight: normal; font-size: 12px; line-height: 18px;&quot;&gt;&lt;div&gt;&lt;span style=&quot;color: #ce9178&quot;&gt;打开摄像头成功&lt;/span&gt;&lt;/div&gt;&lt;/div&gt;" style="text;whiteSpace=wrap;html=1;glass=0;fontColor=#143642;" vertex="1" parent="xH9Cehja_mSp8B9L52eV-53">
          <mxGeometry x="19" y="65" width="110" height="30" as="geometry" />
        </mxCell>
        <mxCell id="xH9Cehja_mSp8B9L52eV-15" value="&lt;meta charset=&quot;utf-8&quot;&gt;&lt;div style=&quot;color: rgb(212, 212, 212); background-color: rgb(30, 30, 30); font-family: menlo, monaco, &amp;quot;courier new&amp;quot;, monospace; font-weight: normal; font-size: 12px; line-height: 18px;&quot;&gt;&lt;div&gt;&lt;span style=&quot;color: #ce9178&quot;&gt;已经连接推流服务器&lt;/span&gt;&lt;/div&gt;&lt;/div&gt;" style="text;whiteSpace=wrap;html=1;glass=0;fontColor=#143642;" vertex="1" parent="xH9Cehja_mSp8B9L52eV-53">
          <mxGeometry x="19" y="5" width="130" height="30" as="geometry" />
        </mxCell>
        <mxCell id="xH9Cehja_mSp8B9L52eV-16" value="&lt;meta charset=&quot;utf-8&quot;&gt;&lt;div style=&quot;color: rgb(212, 212, 212); background-color: rgb(30, 30, 30); font-family: menlo, monaco, &amp;quot;courier new&amp;quot;, monospace; font-weight: normal; font-size: 12px; line-height: 18px;&quot;&gt;&lt;div&gt;&lt;span style=&quot;color: #ce9178&quot;&gt;已经与服务器握手完毕,开始推流&lt;/span&gt;&lt;/div&gt;&lt;/div&gt;" style="text;whiteSpace=wrap;html=1;glass=0;fontColor=#143642;" vertex="1" parent="xH9Cehja_mSp8B9L52eV-53">
          <mxGeometry x="19" y="35" width="200" height="30" as="geometry" />
        </mxCell>
        <mxCell id="xH9Cehja_mSp8B9L52eV-17" value="&lt;meta charset=&quot;utf-8&quot;&gt;&lt;div style=&quot;color: rgb(212, 212, 212); background-color: rgb(30, 30, 30); font-family: menlo, monaco, &amp;quot;courier new&amp;quot;, monospace; font-weight: normal; font-size: 12px; line-height: 18px;&quot;&gt;&lt;div&gt;&lt;span style=&quot;color: #ce9178&quot;&gt;进房成功&lt;/span&gt;&lt;/div&gt;&lt;/div&gt;" style="text;whiteSpace=wrap;html=1;glass=0;fontColor=#143642;" vertex="1" parent="xH9Cehja_mSp8B9L52eV-53">
          <mxGeometry x="19" y="95" width="70" height="30" as="geometry" />
        </mxCell>
        <mxCell id="xH9Cehja_mSp8B9L52eV-19" value="&lt;meta charset=&quot;utf-8&quot;&gt;&lt;div style=&quot;color: rgb(212, 212, 212); background-color: rgb(30, 30, 30); font-family: menlo, monaco, &amp;quot;courier new&amp;quot;, monospace; font-weight: normal; font-size: 12px; line-height: 18px;&quot;&gt;&lt;div&gt;&lt;span style=&quot;color: #ce9178&quot;&gt;退出房间&lt;/span&gt;&lt;/div&gt;&lt;/div&gt;" style="text;whiteSpace=wrap;html=1;glass=0;fontColor=#143642;" vertex="1" parent="xH9Cehja_mSp8B9L52eV-53">
          <mxGeometry x="19" y="125" width="70" height="30" as="geometry" />
        </mxCell>
        <mxCell id="xH9Cehja_mSp8B9L52eV-21" value="&lt;b&gt;&lt;font style=&quot;font-size: 17px&quot;&gt;本地事件&lt;/font&gt;&lt;/b&gt;" style="text;html=1;strokeColor=none;fillColor=none;align=center;verticalAlign=middle;whiteSpace=wrap;rounded=0;glass=0;fontColor=#143642;" vertex="1" parent="xH9Cehja_mSp8B9L52eV-53">
          <mxGeometry x="120" y="175" width="89" height="30" as="geometry" />
        </mxCell>
        <mxCell id="xH9Cehja_mSp8B9L52eV-54" value="&lt;meta charset=&quot;utf-8&quot;&gt;&lt;div style=&quot;color: rgb(212, 212, 212); background-color: rgb(30, 30, 30); font-family: menlo, monaco, &amp;quot;courier new&amp;quot;, monospace; font-weight: normal; font-size: 12px; line-height: 18px;&quot;&gt;&lt;div&gt;&lt;span style=&quot;color: #dcdcaa&quot;&gt;userEventHandler&lt;/span&gt;&lt;/div&gt;&lt;/div&gt;" style="text;whiteSpace=wrap;html=1;fontSize=18;fontColor=#143642;" vertex="1" parent="1">
          <mxGeometry x="230" y="235" width="140" height="30" as="geometry" />
        </mxCell>
        <mxCell id="xH9Cehja_mSp8B9L52eV-55" value="" style="group;fontColor=#143642;" vertex="1" connectable="0" parent="1">
          <mxGeometry x="350" y="390" width="230" height="220" as="geometry" />
        </mxCell>
        <mxCell id="xH9Cehja_mSp8B9L52eV-56" value="&lt;div style=&quot;color: rgb(212 , 212 , 212) ; background-color: rgb(30 , 30 , 30) ; font-family: &amp;#34;menlo&amp;#34; , &amp;#34;monaco&amp;#34; , &amp;#34;courier new&amp;#34; , monospace ; font-weight: normal ; font-size: 12px ; line-height: 18px&quot;&gt;&lt;br&gt;&lt;/div&gt;" style="rounded=0;whiteSpace=wrap;html=1;fillColor=#FAE5C7;strokeColor=#0F8B8D;glass=0;fontColor=#143642;" vertex="1" parent="xH9Cehja_mSp8B9L52eV-55">
          <mxGeometry x="10" y="5" width="230" height="220" as="geometry" />
        </mxCell>
        <mxCell id="xH9Cehja_mSp8B9L52eV-62" value="&lt;b&gt;&lt;font style=&quot;font-size: 17px&quot;&gt;远端事件&lt;/font&gt;&lt;/b&gt;" style="text;html=1;strokeColor=none;fillColor=none;align=center;verticalAlign=middle;whiteSpace=wrap;rounded=0;glass=0;fontColor=#143642;" vertex="1" parent="xH9Cehja_mSp8B9L52eV-55">
          <mxGeometry x="120" y="175" width="89" height="30" as="geometry" />
        </mxCell>
        <mxCell id="xH9Cehja_mSp8B9L52eV-68" value="&lt;meta charset=&quot;utf-8&quot;&gt;&lt;div style=&quot;color: rgb(212, 212, 212); background-color: rgb(30, 30, 30); font-family: menlo, monaco, &amp;quot;courier new&amp;quot;, monospace; font-weight: normal; font-size: 12px; line-height: 18px;&quot;&gt;&lt;div&gt;&lt;span style=&quot;color: #6a9955&quot;&gt;远端用户退房通知&lt;/span&gt;&lt;/div&gt;&lt;/div&gt;" style="text;html=1;strokeColor=none;fillColor=none;align=center;verticalAlign=middle;whiteSpace=wrap;rounded=0;sketch=0;fontColor=#143642;" vertex="1" parent="xH9Cehja_mSp8B9L52eV-55">
          <mxGeometry x="19" y="35" width="110" height="30" as="geometry" />
        </mxCell>
        <mxCell id="xH9Cehja_mSp8B9L52eV-69" value="&lt;div style=&quot;color: rgb(212 , 212 , 212) ; background-color: rgb(30 , 30 , 30) ; font-family: &amp;#34;menlo&amp;#34; , &amp;#34;monaco&amp;#34; , &amp;#34;courier new&amp;#34; , monospace ; line-height: 18px&quot;&gt;&lt;span style=&quot;color: #6a9955&quot;&gt;远端用户进房通知&lt;/span&gt;&lt;/div&gt;" style="text;html=1;strokeColor=none;fillColor=none;align=center;verticalAlign=middle;whiteSpace=wrap;rounded=0;sketch=0;fontColor=#143642;" vertex="1" parent="xH9Cehja_mSp8B9L52eV-55">
          <mxGeometry x="19" y="5" width="110" height="30" as="geometry" />
        </mxCell>
        <mxCell id="xH9Cehja_mSp8B9L52eV-71" value="&lt;meta charset=&quot;utf-8&quot;&gt;&lt;div style=&quot;color: rgb(212, 212, 212); background-color: rgb(30, 30, 30); font-family: menlo, monaco, &amp;quot;courier new&amp;quot;, monospace; font-weight: normal; font-size: 12px; line-height: 18px;&quot;&gt;&lt;div&gt;&lt;span style=&quot;color: #6a9955&quot;&gt;远端用户视频状态位变化通知：&lt;/span&gt;&lt;/div&gt;&lt;/div&gt;" style="text;html=1;strokeColor=none;fillColor=none;align=center;verticalAlign=middle;whiteSpace=wrap;rounded=0;sketch=0;fontColor=#143642;" vertex="1" parent="xH9Cehja_mSp8B9L52eV-55">
          <mxGeometry x="19" y="65" width="180" height="30" as="geometry" />
        </mxCell>
        <mxCell id="xH9Cehja_mSp8B9L52eV-64" value="&lt;meta charset=&quot;utf-8&quot;&gt;&lt;div style=&quot;color: rgb(212, 212, 212); background-color: rgb(30, 30, 30); font-family: menlo, monaco, &amp;quot;courier new&amp;quot;, monospace; font-weight: normal; font-size: 12px; line-height: 18px;&quot;&gt;&lt;div&gt;&lt;span style=&quot;color: #dcdcaa&quot;&gt;_handleUserEvent&lt;/span&gt;&lt;/div&gt;&lt;/div&gt;" style="text;whiteSpace=wrap;html=1;fontSize=18;fontColor=#143642;" vertex="1" parent="1">
          <mxGeometry x="180" y="460" width="140" height="30" as="geometry" />
        </mxCell>
        <mxCell id="xH9Cehja_mSp8B9L52eV-66" style="edgeStyle=orthogonalEdgeStyle;rounded=0;orthogonalLoop=1;jettySize=auto;html=1;exitX=0.5;exitY=1;exitDx=0;exitDy=0;fontSize=18;labelBackgroundColor=#DAD2D8;strokeColor=#A8201A;fontColor=#143642;" edge="1" parent="1" source="xH9Cehja_mSp8B9L52eV-65" target="xH9Cehja_mSp8B9L52eV-64">
          <mxGeometry relative="1" as="geometry" />
        </mxCell>
        <mxCell id="xH9Cehja_mSp8B9L52eV-65" value="&lt;meta charset=&quot;utf-8&quot;&gt;&lt;div style=&quot;color: rgb(212, 212, 212); background-color: rgb(30, 30, 30); font-family: menlo, monaco, &amp;quot;courier new&amp;quot;, monospace; font-weight: normal; font-size: 12px; line-height: 18px;&quot;&gt;&lt;div&gt;&lt;span style=&quot;color: #dcdcaa&quot;&gt;userEventHandler&lt;/span&gt;&lt;/div&gt;&lt;/div&gt;" style="text;whiteSpace=wrap;html=1;fontSize=18;fontColor=#143642;" vertex="1" parent="1">
          <mxGeometry x="180" y="420" width="140" height="30" as="geometry" />
        </mxCell>
        <mxCell id="xH9Cehja_mSp8B9L52eV-79" style="edgeStyle=orthogonalEdgeStyle;rounded=0;sketch=0;orthogonalLoop=1;jettySize=auto;html=1;fontSize=14;fontColor=#143642;strokeColor=#A8201A;fillColor=#FAE5C7;" edge="1" parent="1" source="xH9Cehja_mSp8B9L52eV-72">
          <mxGeometry relative="1" as="geometry">
            <mxPoint x="470" y="110" as="targetPoint" />
            <Array as="points">
              <mxPoint x="610" y="620" />
              <mxPoint x="610" y="110" />
            </Array>
          </mxGeometry>
        </mxCell>
        <mxCell id="xH9Cehja_mSp8B9L52eV-72" value="&lt;b&gt;&lt;font style=&quot;font-size: 14px&quot;&gt;处理用户视频通知&lt;/font&gt;&lt;/b&gt;" style="rounded=0;whiteSpace=wrap;html=1;sketch=0;fontColor=#143642;strokeColor=#0F8B8D;fillColor=#FAE5C7;" vertex="1" parent="1">
          <mxGeometry x="150" y="600" width="120" height="40" as="geometry" />
        </mxCell>
        <mxCell id="xH9Cehja_mSp8B9L52eV-74" style="edgeStyle=orthogonalEdgeStyle;rounded=0;sketch=0;orthogonalLoop=1;jettySize=auto;html=1;entryX=0.5;entryY=0;entryDx=0;entryDy=0;fontColor=#143642;strokeColor=#A8201A;fillColor=#FAE5C7;" edge="1" parent="1" target="xH9Cehja_mSp8B9L52eV-72">
          <mxGeometry relative="1" as="geometry">
            <mxPoint x="459" y="480" as="sourcePoint" />
            <Array as="points">
              <mxPoint x="459" y="560" />
              <mxPoint x="210" y="560" />
            </Array>
          </mxGeometry>
        </mxCell>
        <mxCell id="xH9Cehja_mSp8B9L52eV-75" value="&lt;meta charset=&quot;utf-8&quot;&gt;&lt;div style=&quot;color: rgb(212, 212, 212); background-color: rgb(30, 30, 30); font-family: menlo, monaco, &amp;quot;courier new&amp;quot;, monospace; font-weight: normal; font-size: 12px; line-height: 18px;&quot;&gt;&lt;div&gt;&lt;span style=&quot;color: #dcdcaa&quot;&gt;updateUserVideo&lt;/span&gt;&lt;/div&gt;&lt;/div&gt;" style="text;whiteSpace=wrap;html=1;fontColor=#143642;" vertex="1" parent="1">
          <mxGeometry x="220" y="530" width="130" height="30" as="geometry" />
        </mxCell>
        <mxCell id="xH9Cehja_mSp8B9L52eV-80" value="&lt;meta charset=&quot;utf-8&quot;&gt;&lt;div style=&quot;color: rgb(212, 212, 212); background-color: rgb(30, 30, 30); font-family: menlo, monaco, &amp;quot;courier new&amp;quot;, monospace; font-weight: normal; font-size: 12px; line-height: 18px;&quot;&gt;&lt;div&gt;&lt;span style=&quot;color: #9cdcfe&quot;&gt;REMOTE_VIDEO_ADD&lt;/span&gt;&lt;/div&gt;&lt;/div&gt;" style="text;whiteSpace=wrap;html=1;fontSize=14;fontColor=#143642;" vertex="1" parent="1">
          <mxGeometry x="274" y="620" width="140" height="30" as="geometry" />
        </mxCell>
        <mxCell id="xH9Cehja_mSp8B9L52eV-81" value="&lt;meta charset=&quot;utf-8&quot;&gt;&lt;div style=&quot;color: rgb(212, 212, 212); background-color: rgb(30, 30, 30); font-family: menlo, monaco, &amp;quot;courier new&amp;quot;, monospace; font-weight: normal; font-size: 12px; line-height: 18px;&quot;&gt;&lt;div&gt;&lt;span style=&quot;color: #9cdcfe&quot;&gt;REMOTE_VIDEO_REMOVE&lt;/span&gt;&lt;/div&gt;&lt;/div&gt;" style="text;whiteSpace=wrap;html=1;fontSize=14;fontColor=#143642;" vertex="1" parent="1">
          <mxGeometry x="410" y="620" width="160" height="30" as="geometry" />
        </mxCell>
        <mxCell id="xH9Cehja_mSp8B9L52eV-82" value="&lt;meta charset=&quot;utf-8&quot;&gt;&lt;div style=&quot;color: rgb(212, 212, 212); background-color: rgb(30, 30, 30); font-family: menlo, monaco, &amp;quot;courier new&amp;quot;, monospace; font-weight: normal; font-size: 12px; line-height: 18px;&quot;&gt;&lt;div&gt;&lt;span style=&quot;color: #dcdcaa&quot;&gt;updateUserAudio&lt;/span&gt;&lt;/div&gt;&lt;/div&gt;" style="text;whiteSpace=wrap;html=1;fontSize=14;fontColor=#143642;" vertex="1" parent="1">
          <mxGeometry x="220" y="510" width="130" height="30" as="geometry" />
        </mxCell>
        <mxCell id="xH9Cehja_mSp8B9L52eV-83" value="Text" style="text;html=1;strokeColor=none;fillColor=none;align=center;verticalAlign=middle;whiteSpace=wrap;rounded=0;sketch=0;fontSize=14;fontColor=#143642;" vertex="1" parent="1">
          <mxGeometry x="400" y="330" width="60" height="30" as="geometry" />
        </mxCell>
      </root>
    </mxGraphModel>
  </diagram>
</mxfile>
